<mxfile host="Electron" agent="Mozilla/5.0 (Windows NT 10.0; Win64; x64) AppleWebKit/537.36 (KHTML, like Gecko) draw.io/26.2.2 Chrome/134.0.6998.178 Electron/35.1.2 Safari/537.36" version="26.2.2">
  <diagram name="Page-1" id="RcRWuuqMKezIK5ftuHA_">
    <mxGraphModel dx="2040" dy="1270" grid="1" gridSize="10" guides="1" tooltips="1" connect="1" arrows="1" fold="1" page="1" pageScale="1" pageWidth="850" pageHeight="1100" math="0" shadow="0">
      <root>
        <mxCell id="0" />
        <mxCell id="1" parent="0" />
        <mxCell id="pGbv0S9T2EsgDBP9_-af-1" value="" style="rounded=1;whiteSpace=wrap;html=1;" vertex="1" parent="1">
          <mxGeometry y="1340" width="830" height="930" as="geometry" />
        </mxCell>
        <mxCell id="pGbv0S9T2EsgDBP9_-af-2" value="&lt;font style=&quot;font-size: 24px;&quot;&gt;Student&lt;/font&gt;" style="shape=umlActor;verticalLabelPosition=bottom;verticalAlign=top;html=1;outlineConnect=0;" vertex="1" parent="1">
          <mxGeometry x="1200" y="320" width="100" height="190" as="geometry" />
        </mxCell>
        <mxCell id="pGbv0S9T2EsgDBP9_-af-4" value="Actor" style="shape=umlActor;verticalLabelPosition=bottom;verticalAlign=top;html=1;outlineConnect=0;" vertex="1" parent="1">
          <mxGeometry x="440" y="320" width="100" height="190" as="geometry" />
        </mxCell>
        <mxCell id="pGbv0S9T2EsgDBP9_-af-5" value="Actor" style="shape=umlActor;verticalLabelPosition=bottom;verticalAlign=top;html=1;outlineConnect=0;" vertex="1" parent="1">
          <mxGeometry x="800" y="320" width="100" height="190" as="geometry" />
        </mxCell>
        <mxCell id="pGbv0S9T2EsgDBP9_-af-6" value="&lt;font style=&quot;font-size: 36px;&quot;&gt;reg&lt;/font&gt;" style="ellipse;whiteSpace=wrap;html=1;" vertex="1" parent="1">
          <mxGeometry x="710" y="1250" width="120" height="80" as="geometry" />
        </mxCell>
        <mxCell id="pGbv0S9T2EsgDBP9_-af-7" value="&lt;font style=&quot;font-size: 36px;&quot;&gt;log&lt;/font&gt;" style="ellipse;whiteSpace=wrap;html=1;" vertex="1" parent="1">
          <mxGeometry x="720" y="1100" width="120" height="80" as="geometry" />
        </mxCell>
        <mxCell id="pGbv0S9T2EsgDBP9_-af-11" style="edgeStyle=orthogonalEdgeStyle;rounded=0;orthogonalLoop=1;jettySize=auto;html=1;exitX=1;exitY=1;exitDx=0;exitDy=0;entryX=0.5;entryY=0;entryDx=0;entryDy=0;" edge="1" parent="1" source="pGbv0S9T2EsgDBP9_-af-8" target="pGbv0S9T2EsgDBP9_-af-10">
          <mxGeometry relative="1" as="geometry" />
        </mxCell>
        <mxCell id="pGbv0S9T2EsgDBP9_-af-12" style="edgeStyle=orthogonalEdgeStyle;rounded=0;orthogonalLoop=1;jettySize=auto;html=1;exitX=0;exitY=1;exitDx=0;exitDy=0;entryX=0.5;entryY=0;entryDx=0;entryDy=0;" edge="1" parent="1" source="pGbv0S9T2EsgDBP9_-af-8" target="pGbv0S9T2EsgDBP9_-af-9">
          <mxGeometry relative="1" as="geometry" />
        </mxCell>
        <mxCell id="pGbv0S9T2EsgDBP9_-af-8" value="&lt;font style=&quot;font-size: 36px;&quot;&gt;book ex&lt;/font&gt;" style="ellipse;whiteSpace=wrap;html=1;" vertex="1" parent="1">
          <mxGeometry x="1000" y="860" width="120" height="80" as="geometry" />
        </mxCell>
        <mxCell id="pGbv0S9T2EsgDBP9_-af-9" value="&lt;font style=&quot;font-size: 36px;&quot;&gt;offer&lt;/font&gt;" style="ellipse;whiteSpace=wrap;html=1;" vertex="1" parent="1">
          <mxGeometry x="910" y="1050" width="120" height="80" as="geometry" />
        </mxCell>
        <mxCell id="pGbv0S9T2EsgDBP9_-af-10" value="&lt;font style=&quot;font-size: 24px;&quot;&gt;Request&lt;/font&gt;" style="ellipse;whiteSpace=wrap;html=1;" vertex="1" parent="1">
          <mxGeometry x="1090" y="1050" width="120" height="80" as="geometry" />
        </mxCell>
        <mxCell id="pGbv0S9T2EsgDBP9_-af-13" value="&lt;font style=&quot;font-size: 36px;&quot;&gt;mng usrs&lt;/font&gt;" style="ellipse;whiteSpace=wrap;html=1;" vertex="1" parent="1">
          <mxGeometry x="840" y="860" width="120" height="80" as="geometry" />
        </mxCell>
        <mxCell id="pGbv0S9T2EsgDBP9_-af-14" value="&lt;span style=&quot;font-size: 36px;&quot;&gt;mng deps&lt;/span&gt;" style="ellipse;whiteSpace=wrap;html=1;" vertex="1" parent="1">
          <mxGeometry x="690" y="860" width="120" height="80" as="geometry" />
        </mxCell>
        <mxCell id="pGbv0S9T2EsgDBP9_-af-15" value="&lt;span style=&quot;font-size: 36px;&quot;&gt;mng stf&lt;/span&gt;" style="ellipse;whiteSpace=wrap;html=1;" vertex="1" parent="1">
          <mxGeometry x="540" y="860" width="120" height="80" as="geometry" />
        </mxCell>
        <mxCell id="pGbv0S9T2EsgDBP9_-af-16" value="&lt;span style=&quot;font-size: 36px;&quot;&gt;browse&lt;/span&gt;" style="ellipse;whiteSpace=wrap;html=1;" vertex="1" parent="1">
          <mxGeometry x="1190" y="860" width="120" height="80" as="geometry" />
        </mxCell>
        <mxCell id="pGbv0S9T2EsgDBP9_-af-40" value="" style="endArrow=classic;html=1;rounded=0;" edge="1" parent="1">
          <mxGeometry width="50" height="50" relative="1" as="geometry">
            <mxPoint x="850" y="550" as="sourcePoint" />
            <mxPoint x="900" y="830" as="targetPoint" />
          </mxGeometry>
        </mxCell>
        <mxCell id="pGbv0S9T2EsgDBP9_-af-41" value="" style="endArrow=classic;html=1;rounded=0;" edge="1" parent="1">
          <mxGeometry width="50" height="50" relative="1" as="geometry">
            <mxPoint x="850" y="550" as="sourcePoint" />
            <mxPoint x="790" y="850" as="targetPoint" />
          </mxGeometry>
        </mxCell>
        <mxCell id="pGbv0S9T2EsgDBP9_-af-42" value="" style="endArrow=classic;html=1;rounded=0;" edge="1" parent="1">
          <mxGeometry width="50" height="50" relative="1" as="geometry">
            <mxPoint x="850" y="560" as="sourcePoint" />
            <mxPoint x="640" y="860" as="targetPoint" />
          </mxGeometry>
        </mxCell>
        <mxCell id="pGbv0S9T2EsgDBP9_-af-43" value="" style="endArrow=classic;html=1;rounded=0;" edge="1" parent="1" target="pGbv0S9T2EsgDBP9_-af-15">
          <mxGeometry width="50" height="50" relative="1" as="geometry">
            <mxPoint x="500" y="550" as="sourcePoint" />
            <mxPoint x="490" y="580" as="targetPoint" />
          </mxGeometry>
        </mxCell>
        <mxCell id="pGbv0S9T2EsgDBP9_-af-44" value="" style="endArrow=classic;html=1;rounded=0;" edge="1" parent="1">
          <mxGeometry width="50" height="50" relative="1" as="geometry">
            <mxPoint x="500" y="550" as="sourcePoint" />
            <mxPoint x="740" y="850" as="targetPoint" />
          </mxGeometry>
        </mxCell>
        <mxCell id="pGbv0S9T2EsgDBP9_-af-47" value="" style="endArrow=classic;html=1;rounded=0;" edge="1" parent="1">
          <mxGeometry width="50" height="50" relative="1" as="geometry">
            <mxPoint x="500" y="550" as="sourcePoint" />
            <mxPoint x="1010" y="850" as="targetPoint" />
          </mxGeometry>
        </mxCell>
        <mxCell id="pGbv0S9T2EsgDBP9_-af-48" value="" style="endArrow=classic;html=1;rounded=0;" edge="1" parent="1" target="pGbv0S9T2EsgDBP9_-af-16">
          <mxGeometry width="50" height="50" relative="1" as="geometry">
            <mxPoint x="510" y="550" as="sourcePoint" />
            <mxPoint x="560" y="500" as="targetPoint" />
          </mxGeometry>
        </mxCell>
        <mxCell id="pGbv0S9T2EsgDBP9_-af-49" value="" style="endArrow=classic;html=1;rounded=0;" edge="1" parent="1">
          <mxGeometry width="50" height="50" relative="1" as="geometry">
            <mxPoint x="850" y="550" as="sourcePoint" />
            <mxPoint x="1040" y="840" as="targetPoint" />
          </mxGeometry>
        </mxCell>
        <mxCell id="pGbv0S9T2EsgDBP9_-af-50" value="" style="endArrow=classic;html=1;rounded=0;entryX=0.321;entryY=-0.018;entryDx=0;entryDy=0;entryPerimeter=0;fillColor=#FF0101;fontColor=#FF1313;" edge="1" parent="1" target="pGbv0S9T2EsgDBP9_-af-16">
          <mxGeometry width="50" height="50" relative="1" as="geometry">
            <mxPoint x="850" y="560" as="sourcePoint" />
            <mxPoint x="900" y="510" as="targetPoint" />
          </mxGeometry>
        </mxCell>
        <mxCell id="pGbv0S9T2EsgDBP9_-af-51" value="" style="endArrow=classic;html=1;rounded=0;" edge="1" parent="1">
          <mxGeometry width="50" height="50" relative="1" as="geometry">
            <mxPoint x="1250" y="560" as="sourcePoint" />
            <mxPoint x="1250" y="850" as="targetPoint" />
          </mxGeometry>
        </mxCell>
        <mxCell id="pGbv0S9T2EsgDBP9_-af-52" value="" style="endArrow=classic;html=1;rounded=0;labelBorderColor=#FF0000;fontSize=17;strokeColor=default;" edge="1" parent="1">
          <mxGeometry width="50" height="50" relative="1" as="geometry">
            <mxPoint x="1250" y="570" as="sourcePoint" />
            <mxPoint x="1070" y="840" as="targetPoint" />
          </mxGeometry>
        </mxCell>
      </root>
    </mxGraphModel>
  </diagram>
</mxfile>
